<svg id="Layer_1" data-name="Layer 1" xmlns="http://www.w3.org/2000/svg" viewBox="0 0 500 500"><defs><style>.cls-1,.cls-3,.cls-4,.cls-5{fill:none;stroke-width:4px;}.cls-1,.cls-4,.cls-5{stroke:#999;}.cls-1,.cls-3,.cls-4{stroke-linecap:round;}.cls-1,.cls-3,.cls-5{stroke-linejoin:round;}.cls-2{fill:#999;}.cls-3{stroke:#fff;}.cls-4{stroke-miterlimit:10;}</style></defs><title>BlackJack-Sketchbook</title><path class="cls-1" d="M117.1 301l6.34 51.23"/><path class="cls-2" d="M323.93 257.49l-1.32 11.79c-9.63 9.5-33 17.85-67 17.85-50.61 0-74.37-20.13-75.3-31.13v-.41c-43 16.76-64.36 44.15-64.36 44.15 22.28 26 73.7 44.47 133.89 44.47S361.66 326 384 300c0 0-20-25.59-60.07-42.51z"/><path class="cls-1" d="M376.41 352.24l6.38-51.24"/><path class="cls-3" d="M357.66 296.53c-3.92 4.57-29.36-15.6-36.09-11.85-5.52 3.08 1.08 35-5.87 37.33-6.18 2.11-21.25-26.9-28.24-25.46-6.52 1.35-8.49 34-15.47 34.68-6.72.67-15.19-30.89-22.12-30.89s-15.41 31.56-22.12 30.88c-7-.71-8.89-33.34-15.4-34.71-7-1.46-22.12 27.51-28.29 25.38-6.94-2.39-.23-34.25-5.74-37.34-6.7-3.76-32.18 16.37-36.09 11.8"/><path class="cls-4" d="M56.62 147.37a201.43 201.43 0 0 0-9.12 60.13C47.5 309 122.53 393 220.15 407M137.58 39.58a202.57 202.57 0 0 0-38.77 33.59M389.55 63.11q-6.66-6.48-13.9-12.35M275.74 407.24c98.65-13.08 174.76-97.52 174.76-199.74a202.83 202.83 0 0 0-2.86-34M332.69 197.51l-.12 5.49a6.73 6.73 0 0 1-5.09 6.39c-23 5.69-49.18 8.28-100-.93 0 0-32-5.11-32 22.67 0 48.24 100.55 42.21 121.87 24.18M334.79 99.65l-.19 8.47"/><path class="cls-4" d="M313.7 247.26c4.94 0 11.05 2.86 11.05 2.86l-2.14 19.15c-9.63 9.5-33 17.85-67 17.85-50.61.01-74.37-20.12-75.3-31.12l-.49-19.37M202 156.3c2.58 20.11 13 25.21 13 25.21s22.1 11.21 22.89 11.63l.13.08a33.68 33.68 0 0 0 15.55 3.8h86c18.7 0 34.42-15.3 34.42-34V151a33.44 33.44 0 0 0-13.92-27H360l-.06-.12c-.72-.54-25.92-15.76-25.92-15.76-1.56 5.11-15.57 8.91-44 8.91-35.8 0-57-4-66.36-6.37"/><path class="cls-2" d="M338 128h-82a24 24 0 0 0-24 24v10a24 24 0 0 0 24 24h82a24 24 0 0 0 24-24v-10a24 24 0 0 0-24-24zm-82 54a20.06 20.06 0 0 1-20-20v-10a20.06 20.06 0 0 1 20-20h6.74c5.29 1.11 12.38 4.3 19.19 11.75 0 0 4 4.42 7.09 4.73a28.11 28.11 0 0 1 1.19 8.08A28.86 28.86 0 0 1 275 182h-19zm40.11 0a28.9 28.9 0 0 1-8.12-6.33 32.63 32.63 0 0 0 5.37-26.55A105.26 105.26 0 0 1 321.73 132h2.76a28.76 28.76 0 0 1-1.74 50h-26.64z"/><path class="cls-2" d="M242.25 152H254v11.75h-11.75zM304.35 152h11.75v11.75h-11.75z"/><path class="cls-4" d="M313 258l3-46M297 214.16l-1.84 50.5M248 212v56M214.02 208.78l1.24 51.05M199.34 217.34s63 22.08 115.79 8M195.91 236.25s37.71 29 117.9 9.36M165.5 223.68c5.49-10.42 10.43-25.44 13.59-47.07 7.33-50.12 21.17-72.77 36.88-79.41M149.37 214.71c5.21-10.24 9.88-24.81 12.9-45.49 6.74-46.07 19-68.65 33.23-76.84M133.24 205.7c4.94-10.05 9.33-24.14 12.22-43.87 6.49-44.36 18.2-66.66 31.77-75.25M158.45 219.61l-44.32-22.9a18.55 18.55 0 1 0-17.59 32.63L142.95 253M143.27 211.79A18.44 18.44 0 0 0 127 244.88"/><path class="cls-4" d="M127.49 203.61c-9.14-4.46-20.59-1-25 8.11a18.71 18.71 0 0 0 8.38 24.91M169.5 236.31a18.13 18.13 0 0 0-36.27 0c0 10 7.75 18.77 17.77 18.77h.13c7.79.38 34.87-3.34 44.78-71.09 10.09-69 32.36-86.57 55-81.89M346.77 212.39c-1.2-2.87-2.35-6-3.45-9.44M346.19 232.31a18.13 18.13 0 0 1 36.27 0c0 10-7.75 18.77-17.77 18.77h-.13c-6 .29-23.24-1.82-35.45-33.23"/><path class="cls-2" d="M400.93 5L346.4 94.23a194.67 194.67 0 0 1-55.21 7.94c-58.46 0-114.13-13.75-129-26.38L119.11 5H401m7-4H112l46.82 77h-.19c14.86 14 73 28.17 132.55 28.17 33.33 0 57.84-8.6 57.84-8.6L408 1z"/><path class="cls-2" d="M378.23 20l-37.56 63.81-4.42.92L350.16 20H378m7.47-4zm0 0h-38.54l-15.82 73.87 12.21-2.5L385.47 16zM326 20l-10 66.07c-3.18.06-8.44.13-15.05.13-17 0-41.68-.47-64.27-2.67L217.26 20H326m4.74-4zm0 0H211.85l21.81 71.25c23.7 2.47 50.13 3 67.32 3 11.23 0 18.51-.21 18.51-.21l11.24-74zM193.83 20l20.87 60.74c-18.13-3-35.75-10.52-40.3-12.58L147.4 20H194m2.51-4h-55.94l30.93 55.25s25 12 49 14.29L196.51 16z"/><path class="cls-1" d="M275.33 352.29v69.33c106.7-13 189.36-103.9 189.36-214.12M220.62 352.29v69.07C114.91 407.47 33.29 317 33.29 207.5M230.18 385.76l7.56 7.56-7.68 7.68M265.14 401l-7.57-7.56 7.68-7.68M237.74 354.23l-7.68 7.68M265.14 361.91l-7.57-7.56M230.18 424.1l7.56 7.57M257.57 431.78l7.68-7.68"/><path class="cls-2" d="M247.89 356.92l-17 17 17 17 17-17zm.23 22.56a5.54 5.54 0 1 1 5.54-5.54 5.54 5.54 0 0 1-5.53 5.54zM247.89 395.88l-17 17 17 17 17-17zm.23 22.6a5.54 5.54 0 1 1 5.54-5.54 5.54 5.54 0 0 1-5.53 5.54z"/><path class="cls-5" d="M122.76 99.75c-25.58-21.31-35-44.64-35-44.64s-9.42 23.33-35 44.64c-23.44 19.53-13 48.83 15.3 48.83a21.82 21.82 0 0 0 14.76-5.88c-3 16.83-8.64 26.22-13.75 28.82A3.18 3.18 0 0 0 68 173h39.92a3.18 3.18 0 0 0-1.1-1.47c-5.08-2.59-10.64-12-13.69-28.57a21.73 21.73 0 0 0 14.37 5.59c28.28 0 38.7-29.26 15.26-48.8z"/><rect class="cls-5" x="386.47" y="61.86" width="67.55" height="111.14" rx="8" ry="8"/><path class="cls-1" d="M409.07 103.44L398 117.72l10.94 14.13M431 103.44l11.07 14.28-10.94 14.13M417.2 131.85l6.05-28.41"/><circle class="cls-2" cx="398.5" cy="73.83" r="2"/><circle class="cls-2" cx="406.5" cy="73.83" r="2"/><circle class="cls-2" cx="414.5" cy="73.83" r="2"/><path class="cls-2" d="M85.86 389.06a5.31 5.31 0 0 1 1.5 3.53 4.31 4.31 0 0 1-1.36 3.48l-25.09 24a4.16 4.16 0 0 1-3.49 1.17 5.43 5.43 0 0 1-3.42-1.65L33.31 398l31.87-30.53zm-28.72 20.39l5.76-5.52-10-10.43-5.75 5.5zm8.32-28l-5.69 5.45 10 10.43 5.69-5.45zM86 434l15.71 11.37-5.54 7.63-24.22-17.56 25.88-35.76 8.51 6.16zM140.37 476l1.3-10.88-14.82-6.94-7.62 7.92-9.69-4.54 31.77-33.75 14.36 6.73-5.61 46zm4.23-36.39l-10.87 11.3 9.05 4.24zM193.89 462.37l1.34-5.39-12.25-3-6.12 24.6 12.25 3 1.34-5.39 10.09 2.51-2.46 9.9a4.22 4.22 0 0 1-2.28 2.87 5.5 5.5 0 0 1-3.94.37l-22.25-5.54a5.31 5.31 0 0 1-3.26-2.16 4.28 4.28 0 0 1-.62-3.59l8.39-33.72a4.44 4.44 0 0 1 2.24-2.93 5.2 5.2 0 0 1 3.91-.43l22.26 5.53a5.39 5.39 0 0 1 3.3 2.23 4.36 4.36 0 0 1 .65 3.65l-2.49 10zM243.39 497.4l-8.24-13-9.32 12.24-8.78-.38 1.89-44.1 10.39.45-.91 21.19 15-20.58 14.93.64-15.74 20.55h.39L257.11 498zM313.92 444.9l8 38.57a4.36 4.36 0 0 1-.8 3.62 5.25 5.25 0 0 1-3.28 2.07l-22.65 4.7a5.24 5.24 0 0 1-3.84-.6 4.37 4.37 0 0 1-2.17-3l-2.07-10-1.91-9.2 10.19-2.06 3 14.64 12.26-2.54-7.06-34zM370.23 470.38l-7.23-8.23-15.07 6.38.8 11-9.86 4.18-3.87-46.23 14.6-6.19 30.48 34.91zM346 442.92l1.14 15.64 9.21-3.9zM395.86 421.47l-3.11-4.6-10.46 7.07 14.19 21 10.46-7.07-3.11-4.6 8.62-5.82 5.71 8.45a4.22 4.22 0 0 1 .61 3.61 5.51 5.51 0 0 1-2.36 3.18l-19 12.83a5.31 5.31 0 0 1-3.79 1 4.28 4.28 0 0 1-3.08-1.94l-19.44-28.81a4.44 4.44 0 0 1-.68-3.62 5.2 5.2 0 0 1 2.29-3.19l19-12.83a5.38 5.38 0 0 1 3.86-1 4.37 4.37 0 0 1 3.15 2l5.77 8.54zM455 408.2l-15.16-2.58 2.84 15.12-6.15 6.26-31.47-30.94 7.29-7.42 15.13 14.87-5.21-25 10.48-10.66 4.72 25.46.21-.22 27 5.27z"/></svg>